<svg viewBox="0 0 128 128" xmlns="http://www.w3.org/2000/svg"><g fill="none" fill-rule="evenodd"><rect fill="#fff" fill-rule="nonzero" height="128" rx="16" width="128"/><g transform="translate(11 32)"><path d="m29.9748344 22.9549669c0 1.2986755.1403974 2.3516556.3860928 3.123841.2807947.7721855.631788 1.6145696 1.1231788 2.5271524.1754966.2807947.2456953.5615894.2456953.8072847 0 .3509934-.210596.7019868-.6668874 1.0529802l-2.2112583 1.4741722c-.315894.210596-.6317881.315894-.9125828.315894-.3509933 0-.7019867-.1754967-1.0529801-.4913907-.4913907-.5264901-.9125828-1.0880795-1.2635761-1.6496689-.3509934-.5966888-.7019868-1.2635762-1.0880795-2.0708609-2.7377484 3.229139-6.1774835 4.8437086-10.3192053 4.8437086-2.9483444 0-5.30000001-.8423841-7.01986756-2.5271523-1.71986755-1.6847683-2.59735099-3.9311259-2.59735099-6.7390729 0-2.9834437 1.05298013-5.405298 3.19403973-7.2304636 2.1410596-1.8251655 4.98410592-2.7377483 8.59933772-2.7377483 1.1933775 0 2.4218543.105298 3.7205298.2807947s2.6324504.4562914 4.0364239.7721854v-2.5622516c0-2.66754971-.5615894-4.52781461-1.6496689-5.61589408-1.1231788-1.08807947-3.018543-1.61456954-5.7211921-1.61456954-1.2284768 0-2.4920529.14039736-3.7907284.4562914s-2.5622517.70198675-3.79072851 1.19337748c-.5615894.24569536-.98278146.38609271-1.22847682.45629139-.24569537.07019868-.42119205.10529801-.56158941.10529801-.49139072 0-.73708609-.35099337-.73708609-1.08807947v-1.71986755c0-.5615894.07019868-.98278145.24569537-1.22847682.17549669-.24569536.49139072-.49139073.98278145-.73708609 1.22847682-.63178808 2.70264901-1.15827815 4.42251651-1.5794702 1.7198676-.45629139 3.5450332-.66688742 5.4754967-.66688742 4.1768212 0 7.2304636.94768212 9.1960265 2.84304636 1.9304636 1.89536424 2.9132451 4.77350993 2.9132451 8.63443713v11.3721854zm-14.2503311 5.3350993c1.1582782 0 2.3516556-.210596 3.6152318-.6317881 1.2635762-.421192 2.386755-1.1933774 3.3344371-2.2463576.5615894-.6668874.9827814-1.4039735 1.1933775-2.2463576.210596-.8423841.3509933-1.8602649.3509933-3.0536424v-1.4741722c-1.0178807-.2456953-2.1059602-.4562913-3.229139-.5966887-1.1231788-.1403973-2.2112583-.210596-3.2993378-.210596-2.3516556 0-4.0715232.4562914-5.2298013 1.4039735s-1.7198675 2.2814569-1.7198675 4.0364238c0 1.6496689.421192 2.8781457 1.2986754 3.7205298.8423842.8774835 2.070861 1.2986755 3.6854305 1.2986755zm28.1847682 3.7907285c-.6317881 0-1.0529801-.105298-1.3337748-.3509934-.2807947-.210596-.5264901-.7019867-.7370861-1.3688741l-8.2483444-27.13178813c-.210596-.70198675-.315894-1.15827814-.315894-1.40397351 0-.5615894.2807947-.87748344.8423841-.87748344h3.4397351c.6668874 0 1.1231788.10529801 1.3688742.35099338.2807947.21059602.4913907.70198675.7019867 1.36887417l5.8966888 23.23576163 5.4754966-23.23576163c.1754967-.70198676.3860928-1.15827815.6668875-1.36887417.2807947-.21059603.7721854-.35099338 1.4039735-.35099338h2.807947c.6668874 0 1.1231788.10529801 1.4039735.35099338.2807947.21059602.5264901.70198675.6668874 1.36887417l5.5456954 23.51655633 6.0721854-23.51655633c.210596-.70198676.4562914-1.15827815.7019868-1.36887417.2807947-.21059603.7370861-.35099338 1.3688741-.35099338h3.2642385c.5615894 0 .8774834.2807947.8774834.87748344 0 .17549669-.0350993.35099338-.0701987.56158941-.0350993.21059602-.105298.49139073-.2456953.87748344l-8.4589404 27.13178809c-.2105961.7019867-.4562914 1.1582781-.7370861 1.3688742-.2807947.210596-.7370861.3509933-1.3337749.3509933h-3.018543c-.6668874 0-1.1231788-.105298-1.4039735-.3509933-.2807947-.2456954-.5264901-.7019868-.6668874-1.4039735l-5.4403974-22.6390729-5.405298 22.6039735c-.1754967.7019868-.3860927 1.1582782-.6668874 1.4039735-.2807947.2456954-.7721855.3509934-1.4039735.3509934zm45.102649.9476821c-1.8251655 0-3.6503311-.210596-5.405298-.6317881-1.7549669-.421192-3.123841-.8774834-4.0364238-1.4039735-.5615894-.315894-.9476821-.6668874-1.0880795-.9827814-.1403973-.3158941-.210596-.6668874-.210596-.9827815v-1.7900662c0-.7370861.2807947-1.0880795.8072847-1.0880795.2105961 0 .4211921.0350994.6317881.105298.2105961.0701987.5264901.2105961.8774835.3509934 1.1933775.5264901 2.492053.9476821 3.8609271 1.2284768 1.4039735.2807947 2.7728477.4211921 4.1768212.4211921 2.2112583 0 3.9311258-.3860927 5.1245033-1.1582782 1.1933775-.7721854 1.8251656-1.8953642 1.8251656-3.334437 0-.9827815-.3158941-1.7900663-.9476821-2.4569537-.6317881-.6668874-1.8251656-1.2635761-3.5450331-1.8251655l-5.089404-1.5794702c-2.5622517-.8072848-4.4576159-2.0006623-5.6158941-3.5801325-1.1582781-1.5443709-1.7549668-3.2642384-1.7549668-5.08940397 0-1.47417219.315894-2.77284768.9476821-3.89602649s1.4741722-2.10596027 2.5271523-2.8781457c1.0529801-.80728477 2.2463576-1.40397351 3.6503311-1.82516556s2.8781457-.59668874 4.4225166-.59668874c.7721854 0 1.5794702.03509934 2.3516556.14039735.8072848.10529801 1.5443709.24569536 2.281457.38609271.7019867.17549669 1.3688741.35099338 2.0006622.56158941.6317881.21059602 1.1231788.42119205 1.4741722.63178808.4913907.2807947.8423841.5615894 1.0529801.87748344.2105961.2807947.3158941.66688742.3158941 1.15827815v1.64966887c0 .73708609-.2807947 1.12317881-.8072848 1.12317881-.2807947 0-.7370861-.14039735-1.3337748-.42119205-2.0006623-.91258279-4.2470199-1.36887418-6.7390729-1.36887418-2.0006622 0-3.5801324.31589404-4.6682119.98278146s-1.6496689 1.68476821-1.6496689 3.12384106c0 .98278146.3509934 1.82516555 1.0529802 2.49205295.7019867.6668874 2.0006622 1.3337749 3.8609271 1.9304636l4.984106 1.5794702c2.5271523.8072848 4.3523178 1.9304636 5.4403973 3.3695364 1.0880798 1.4390729 1.6145698 3.0887418 1.6145698 4.9139073 0 1.5092715-.315894 2.8781457-.912583 4.0715232-.6317881 1.1933775-1.4741722 2.2463576-2.5622517 3.0887417-1.0880795.8774835-2.3867549 1.5092715-3.8960265 1.9655629-1.5794702.4913908-3.229139.7370861-5.0192053.7370861z" fill="#252f3e" fill-rule="nonzero"/><g fill="#f90" transform="translate(0 39.311258)"><path d="m95.6456954 10.7754967c-11.5476822 8.5291391-28.3251656 13.0569536-42.7509934 13.0569536-20.2172186 0-38.4337748-7.4761589-52.19271524-19.90132447-1.08807948-.98278146-.10529802-2.31655629 1.19337748-1.54437086 14.88211916 8.63443713 33.23907286 13.86423843 52.22781456 13.86423843 12.8112583 0 26.8860927-2.6675497 39.8377484-8.14304638 1.9304635-.87748344 3.5801324 1.26357616 1.6847682 2.66754968z"/><path d="m100.454305 5.3c-1.4741725-1.89536424-9.7576163-.91258278-13.5132454-.45629139-1.1231788.14039735-1.2986755-.84238411-.2807947-1.5794702 6.5986755-4.63311258 17.4443711-3.29933775 18.7079471-1.75496689 1.263576 1.5794702-.350993 12.42516558-6.5284769 17.61986758-.9476821.8072847-1.8602649.3860927-1.4390728-.6668874 1.4039735-3.4748345 4.5278147-11.3019868 3.0536427-13.1622517z"/></g></g></g></svg>
